<svg width="1024" height="1024" viewBox="0 0 1024 1024" fill="none" xmlns="http://www.w3.org/2000/svg">
<defs>
<radialGradient id="glow" cx="0" cy="0" r="1" gradientUnits="userSpaceOnUse" gradientTransform="translate(512 640) rotate(90) scale(270)"><stop stop-color="#7CFFD6" stop-opacity=".62"/><stop offset=".48" stop-color="#50DCFF" stop-opacity=".28"/><stop offset="1" stop-color="#7B61FF" stop-opacity="0"/></radialGradient>
<linearGradient id="abdomen" x1="512" y1="475" x2="512" y2="790" gradientUnits="userSpaceOnUse"><stop stop-color="#50DCFF"/><stop offset="1" stop-color="#7CFFD6"/></linearGradient>
</defs>
<circle cx="512" cy="640" r="270" fill="url(#glow)"/>
<path d="M472 410L318 286L218 318L238 474L382 542L472 410Z" fill="#D8E6FF" fill-opacity=".86"/>
<path d="M552 410L706 286L806 318L786 474L642 542L552 410Z" fill="#D8E6FF" fill-opacity=".86"/>
<path d="M443 432L328 332L267 349L281 430L387 494L443 432Z" fill="white" fill-opacity=".2"/>
<path d="M581 432L696 332L757 349L743 430L637 494L581 432Z" fill="white" fill-opacity=".2"/>
<ellipse cx="512" cy="447.5" rx="112" ry="117.5" fill="#111827"/>
<circle cx="512" cy="339" r="91" fill="#1F2937"/>
<ellipse cx="512" cy="632.5" rx="102" ry="157.5" fill="url(#abdomen)"/>
<ellipse cx="512" cy="635" rx="74" ry="125" fill="#7CFFD6" fill-opacity=".95"/>
<path d="M453 640H485L501 600L525 686L546 630H575" stroke="white" stroke-width="20" stroke-linecap="round" stroke-linejoin="round"/>
<circle cx="475.5" cy="325.5" r="13.5" fill="#F0FDFA"/>
<circle cx="548.5" cy="325.5" r="13.5" fill="#F0FDFA"/>
<path d="M464 282L418 226L382 217" stroke="#1F2937" stroke-width="16" stroke-linecap="round"/>
<path d="M560 282L606 226L642 217" stroke="#1F2937" stroke-width="16" stroke-linecap="round"/>
<circle cx="380" cy="216" r="12" fill="#7CFFD6"/>
<circle cx="644" cy="216" r="12" fill="#7CFFD6"/>
</svg>